<?xml version="1.0" encoding="UTF-8"?>
<svg xmlns="http://www.w3.org/2000/svg" width="1180" height="1560" viewBox="0 0 1180 1560">
  <defs>
    <marker id="arrow" viewBox="0 0 10 10" refX="9" refY="5" markerWidth="7" markerHeight="7" orient="auto">
      <path d="M 0 0 L 10 5 L 0 10 z" fill="#000000"/>
    </marker>
    <marker id="gen" viewBox="0 0 12 12" refX="6" refY="6" markerWidth="9" markerHeight="9" orient="auto">
      <path d="M 6 0 L 12 12 L 0 12 z" fill="#ffffff" stroke="#000000" stroke-width="1.2"/>
    </marker>
    <style type="text/css"><![CDATA[
      .title { font: bold 20px Arial, Helvetica, sans-serif; fill: #000000; }
      .sys { fill: #ffffff; stroke: #000000; stroke-width: 2; }
      .zone { fill: #d4edda; stroke: #6c9a6c; stroke-width: 1.2; opacity: 0.6; }
      .zone-label { font: bold 12px Arial, Helvetica, sans-serif; fill: #1b5e20; text-anchor: middle; }
      .actor { font: 11px Arial, Helvetica, sans-serif; fill: #000000; text-anchor: middle; }
      .uc { fill: #ffffff; stroke: #000000; stroke-width: 1.3; }
      .uc-t { font: 10px Arial, Helvetica, sans-serif; fill: #000000; text-anchor: middle; }
      .line { fill: none; stroke: #000000; stroke-width: 1.1; }
      .dash { stroke-dasharray: 5 4; }
      .ext { stroke-dasharray: 6 4; marker-end: url(#arrow); }
      .gen { marker-end: url(#gen); }
      .stereo { font: italic 9px Arial, Helvetica, sans-serif; fill: #000000; }
    ]]></style>
  </defs>

  <rect width="1180" height="1560" fill="#ffffff"/>
  <text class="title" x="590" y="30" text-anchor="middle">Qu&#7843;n l&#253; nh&#224; h&#224;ng</text>

  <!-- System boundary -->
  <rect class="sys" x="170" y="200" width="840" height="1180" rx="4"/>
  <text class="title" x="590" y="225" text-anchor="middle" font-size="15px">H&#7879; th&#7889;ng Qu&#7843;n l&#253; nh&#224; h&#224;ng</text>

  <!-- Zones -->
  <rect class="zone" x="190" y="245" width="300" height="520" rx="5"/>
  <text class="zone-label" x="340" y="268">D&#7883;ch v&#7909; kh&#225;ch h&#224;ng</text>

  <rect class="zone" x="510" y="245" width="320" height="520" rx="5"/>
  <text class="zone-label" x="670" y="268">X&#7917; l&#253; b&#224;n &amp; order</text>

  <rect class="zone" x="850" y="245" width="140" height="250" rx="5"/>
  <text class="zone-label" x="920" y="268">Qu&#7843;n l&#253;</text>
  <text class="zone-label" x="920" y="284">chi nh&#225;nh</text>

  <rect class="zone" x="850" y="510" width="140" height="255" rx="5"/>
  <text class="zone-label" x="920" y="533">Qu&#7843;n l&#253;</text>
  <text class="zone-label" x="920" y="549">h&#7879; th&#7889;ng</text>

  <!-- ACTORS -->
  <g>
    <circle cx="590" cy="95" r="10" fill="none" stroke="#000" stroke-width="1.3"/>
    <line x1="590" y1="105" x2="590" y2="132" class="line"/>
    <line x1="568" y1="118" x2="612" y2="118" class="line"/>
    <line x1="590" y1="132" x2="572" y2="152" class="line"/>
    <line x1="590" y1="132" x2="608" y2="152" class="line"/>
    <text class="actor" x="590" y="78">User</text>
  </g>

  <g>
    <circle cx="80" cy="120" r="10" fill="none" stroke="#000" stroke-width="1.3"/>
    <line x1="80" y1="130" x2="80" y2="157" class="line"/>
    <line x1="58" y1="143" x2="102" y2="143" class="line"/>
    <line x1="80" y1="157" x2="62" y2="177" class="line"/>
    <line x1="80" y1="157" x2="98" y2="177" class="line"/>
    <text class="actor" x="80" y="103">Kh&#225;ch h&#224;ng</text>
    <path class="line gen" d="M 95 145 L 565 115"/>
  </g>

  <g>
    <circle cx="1100" cy="120" r="10" fill="none" stroke="#000" stroke-width="1.3"/>
    <line x1="1100" y1="130" x2="1100" y2="157" class="line"/>
    <line x1="1078" y1="143" x2="1122" y2="143" class="line"/>
    <line x1="1100" y1="157" x2="1082" y2="177" class="line"/>
    <line x1="1100" y1="157" x2="1118" y2="177" class="line"/>
    <text class="actor" x="1100" y="103">Admin h&#7879; th&#7889;ng</text>
    <path class="line gen" d="M 1085 145 L 615 115"/>
  </g>

  <g>
    <circle cx="1100" cy="280" r="10" fill="none" stroke="#000" stroke-width="1.3"/>
    <line x1="1100" y1="290" x2="1100" y2="317" class="line"/>
    <line x1="1078" y1="303" x2="1122" y2="303" class="line"/>
    <line x1="1100" y1="317" x2="1082" y2="337" class="line"/>
    <line x1="1100" y1="317" x2="1118" y2="337" class="line"/>
    <text class="actor" x="1100" y="263">Qu&#7843;n l&#253; chi nh&#225;nh</text>
    <path class="line gen" d="M 1085 305 L 615 115"/>
  </g>

  <g>
    <circle cx="80" cy="1380" r="10" fill="none" stroke="#000" stroke-width="1.3"/>
    <line x1="80" y1="1390" x2="80" y2="1417" class="line"/>
    <line x1="58" y1="1403" x2="102" y2="1403" class="line"/>
    <line x1="80" y1="1417" x2="62" y2="1437" class="line"/>
    <line x1="80" y1="1417" x2="98" y2="1437" class="line"/>
    <text class="actor" x="80" y="1363">Nh&#226;n vi&#234;n ph&#7909;c v&#7909;</text>
  </g>

  <g>
    <circle cx="1100" cy="1380" r="10" fill="none" stroke="#000" stroke-width="1.3"/>
    <line x1="1100" y1="1390" x2="1100" y2="1417" class="line"/>
    <line x1="1078" y1="1403" x2="1122" y2="1403" class="line"/>
    <line x1="1100" y1="1417" x2="1082" y2="1437" class="line"/>
    <line x1="1100" y1="1417" x2="1118" y2="1437" class="line"/>
    <text class="actor" x="1100" y="1363">Nh&#226;n vi&#234;n b&#7871;p</text>
  </g>

  <!-- USE CASES -->

  <!-- UC02 - left edge, common -->
  <ellipse class="uc" cx="200" cy="300" rx="72" ry="24"/>
  <text class="uc-t" x="200" y="296">UC02</text>
  <text class="uc-t" x="200" y="309">&#272;&#259;ng nh&#7853;p h&#7879; th&#7889;ng</text>

  <!-- Customer -->
  <ellipse class="uc" cx="280" cy="360" rx="78" ry="22"/>
  <text class="uc-t" x="280" y="356">UC01</text>
  <text class="uc-t" x="280" y="369">&#272;&#259;ng k&#253; t&#224;i kho&#7843;n KH</text>

  <ellipse class="uc" cx="280" cy="420" rx="82" ry="24"/>
  <text class="uc-t" x="280" y="416">UC03</text>
  <text class="uc-t" x="280" y="429">Xem th&#244;ng tin chi nh&#225;nh</text>

  <ellipse class="uc" cx="280" cy="485" rx="82" ry="24"/>
  <text class="uc-t" x="280" y="481">UC04</text>
  <text class="uc-t" x="280" y="494">Xem menu m&#243;n &#259;n</text>

  <ellipse class="uc" cx="280" cy="550" rx="72" ry="22"/>
  <text class="uc-t" x="280" y="546">UC05</text>
  <text class="uc-t" x="280" y="559">&#272;&#7863;t b&#224;n tr&#432;&#7899;c</text>

  <ellipse class="uc" cx="350" cy="640" rx="88" ry="26"/>
  <text class="uc-t" x="350" y="636">UC12</text>
  <text class="uc-t" x="350" y="649">Xem l&#7883;ch s&#7917; &#273;&#7863;t b&#224;n</text>
  <text class="uc-t" x="350" y="662">v&#224; h&#243;a &#273;&#417;n</text>

  <ellipse class="uc" cx="350" cy="720" rx="82" ry="24"/>
  <text class="uc-t" x="350" y="716">UC13</text>
  <text class="uc-t" x="350" y="729">G&#7917;i &#273;&#225;nh gi&#225; d&#7883;ch v&#7909;</text>

  <!-- Table & order -->
  <ellipse class="uc" cx="580" cy="340" rx="88" ry="24"/>
  <text class="uc-t" x="580" y="336">UC06</text>
  <text class="uc-t" x="580" y="349">Ti&#7871;p nh&#7853;n kh&#225;ch, ph&#226;n b&#224;n</text>

  <ellipse class="uc" cx="670" cy="410" rx="82" ry="24"/>
  <text class="uc-t" x="670" y="406">UC07</text>
  <text class="uc-t" x="670" y="419">T&#7841;o order m&#243;n &#259;n cho b&#224;n</text>

  <ellipse class="uc" cx="760" cy="340" rx="88" ry="24"/>
  <text class="uc-t" x="760" y="336">UC08</text>
  <text class="uc-t" x="760" y="349">C&#7853;p nh&#7853;t ch&#7871; bi&#7871;n m&#243;n</text>

  <ellipse class="uc" cx="580" cy="480" rx="78" ry="22"/>
  <text class="uc-t" x="580" y="476">UC09</text>
  <text class="uc-t" x="580" y="489">Ph&#7909;c v&#7909; m&#243;n &#259;n cho b&#224;n</text>

  <ellipse class="uc" cx="670" cy="550" rx="82" ry="24"/>
  <text class="uc-t" x="670" y="546">UC10</text>
  <text class="uc-t" x="670" y="559">C&#7853;p nh&#7853t tr&#7841;ng th&#225;i b&#224;n</text>

  <ellipse class="uc" cx="760" cy="480" rx="92" ry="28"/>
  <text class="uc-t" x="760" y="474">UC11</text>
  <text class="uc-t" x="760" y="487">Thanh to&#225;n, xu&#7845;t H&#272;</text>
  <text class="uc-t" x="760" y="500">(VietQR)</text>

  <!-- Branch mgmt -->
  <ellipse class="uc" cx="920" cy="330" rx="62" ry="34"/>
  <text class="uc-t" x="920" y="322">UC14</text>
  <text class="uc-t" x="920" y="335">B&#225;o c&#225;o doanh thu</text>
  <text class="uc-t" x="920" y="348">+ TK &#273;&#225;nh gi&#225;</text>

  <ellipse class="uc" cx="920" cy="430" rx="62" ry="34"/>
  <text class="uc-t" x="920" y="422">UC15</text>
  <text class="uc-t" x="920" y="435">QL th&#244;ng tin CN</text>
  <text class="uc-t" x="920" y="448">+ th&#7921;c &#273;&#417;n</text>

  <!-- System mgmt -->
  <ellipse class="uc" cx="920" cy="590" rx="62" ry="36"/>
  <text class="uc-t" x="920" y="580">UC16</text>
  <text class="uc-t" x="920" y="593">QL chi nh&#225;nh HT</text>
  <text class="uc-t" x="920" y="606">+ Dashboard</text>

  <ellipse class="uc" cx="920" cy="700" rx="62" ry="36"/>
  <text class="uc-t" x="920" y="690">UC17</text>
  <text class="uc-t" x="920" y="703">QL t&#224;i kho&#7843;n</text>
  <text class="uc-t" x="920" y="716">ph&#226;n quy&#7873;n, b&#224;n, QR</text>

  <!-- ASSOCIATIONS -->
  <line class="line" x1="590" y1="152" x2="200" y2="276"/>
  <line class="line" x1="90" y1="177" x2="280" y2="338"/>
  <line class="line" x1="90" y1="177" x2="280" y2="396"/>
  <line class="line" x1="90" y1="177" x2="280" y2="461"/>
  <line class="line" x1="90" y1="177" x2="280" y2="528"/>
  <line class="line" x1="90" y1="177" x2="350" y2="614"/>
  <line class="line" x1="90" y1="177" x2="350" y2="696"/>
  <line class="line dash" x1="100" y1="177" x2="620" y2="398"/>
  <line class="line dash" x1="110" y1="177" x2="540" y2="328"/>

  <line class="line" x1="1090" y1="177" x2="920" y2="296"/>
  <line class="line" x1="1090" y1="177" x2="920" y2="554"/>
  <line class="line" x1="1090" y1="177" x2="920" y2="664"/>
  <line class="line" x1="1090" y1="177" x2="920" y2="296"/>
  <line class="line" x1="1090" y1="337" x2="920" y2="396"/>
  <line class="line" x1="1090" y1="337" x2="920" y2="296"/>

  <line class="line" x1="90" y1="1368" x2="580" y2="364"/>
  <line class="line" x1="90" y1="1368" x2="670" y2="434"/>
  <line class="line" x1="90" y1="1368" x2="580" y2="502"/>
  <line class="line" x1="90" y1="1368" x2="670" y2="574"/>
  <line class="line" x1="90" y1="1368" x2="760" y2="508"/>

  <line class="line" x1="1090" y1="1368" x2="760" y2="364"/>

  <!-- EXTEND: UC13 -> UC12, UC07 -> UC05 -->
  <path class="line ext" d="M 350 696 L 350 666"/>
  <text class="stereo" x="360" y="682">&lt;&lt;extend&gt;&gt;</text>

  <path class="line ext" d="M 600 398 L 340 552"/>
  <text class="stereo" x="455" y="468">&lt;&lt;extend&gt;&gt;</text>

</svg>
